<?xml version="1.0" encoding="utf-8"?>
<!-- Generator: Adobe Illustrator 25.0.0, SVG Export Plug-In . SVG Version: 6.00 Build 0)  -->
<svg version="1.1" id="Layer_1" xmlns="http://www.w3.org/2000/svg" xmlns:xlink="http://www.w3.org/1999/xlink" x="0px" y="0px"
	 viewBox="0 0 15 15" style="enable-background:new 0 0 15 15;" xml:space="preserve">
<style type="text/css">
	.st0{clip-path:url(#SVGID_2_);}
	.st1{clip-path:url(#SVGID_4_);fill:#004050;}
	.st2{fill:#231F20;}
</style>
<g>
	<defs>
		<path id="SVGID_1_" d="M15,0v5.33h-1.06V1.87c-2.38,2.39-4.73,4.74-7.07,7.09C6.57,8.67,6.33,8.43,6.08,8.18
			c2.35-2.35,4.7-4.69,7.11-7.09H9.67V0H15z M7.46,1.07v1.07H7.1c-1.78,0-3.55,0-5.33,0c-0.54,0-0.7,0.16-0.7,0.69
			c0,3.47,0,6.93,0,10.4c0,0.56,0.15,0.71,0.71,0.71h10.36c0.57,0,0.72-0.15,0.72-0.73c0-1.75,0-3.51,0-5.26V7.54h1.07v5.48
			c0,1.16-0.28,1.58-1.33,1.98H1.33C0.62,14.82,0.18,14.38,0,13.67V2.4c0.38-1.04,0.81-1.33,1.94-1.33H7.46z"/>
	</defs>
	<clipPath id="SVGID_2_">
		<use xlink:href="#SVGID_1_"  style="overflow:visible;"/>
	</clipPath>
	<g class="st0">
		<defs>
			<rect id="SVGID_3_" x="-170" y="-1590" width="1440" height="3031"/>
		</defs>
		<clipPath id="SVGID_4_">
			<use xlink:href="#SVGID_3_"  style="overflow:visible;"/>
		</clipPath>
		<rect x="-5" y="-5" class="st1" width="25" height="25"/>
	</g>
</g>
</svg>
