<?xml version="1.0" encoding="utf-8"?>
<!-- Generator: Adobe Illustrator 25.0.0, SVG Export Plug-In . SVG Version: 6.00 Build 0)  -->
<svg version="1.1" id="Layer_1" xmlns="http://www.w3.org/2000/svg" xmlns:xlink="http://www.w3.org/1999/xlink" x="0px" y="0px"
	 viewBox="0 0 87 51" style="enable-background:new 0 0 87 51;" xml:space="preserve">
<style type="text/css">
	.st0{clip-path:url(#SVGID_2_);}
	.st1{clip-path:url(#SVGID_4_);fill:#004050;}
	.st2{fill:#231F20;}
</style>
<g>
	<defs>
		<path id="SVGID_1_" d="M-131.5,0v5.33h-1.06V1.87c-2.38,2.39-4.73,4.74-7.07,7.09c-0.29-0.29-0.54-0.53-0.79-0.78
			c2.35-2.35,4.7-4.69,7.11-7.09h-3.52V0H-131.5z M-139.04,1.07v1.07h-0.36c-1.78,0-3.55,0-5.33,0c-0.54,0-0.7,0.16-0.7,0.69
			c0,3.47,0,6.93,0,10.4c0,0.56,0.15,0.71,0.71,0.71h10.36c0.57,0,0.72-0.15,0.72-0.73c0-1.75,0-3.51,0-5.26V7.54h1.07v5.48
			c0,1.16-0.28,1.58-1.33,1.98h-11.27c-0.71-0.18-1.15-0.62-1.33-1.33V2.4c0.38-1.04,0.81-1.33,1.94-1.33H-139.04z"/>
	</defs>
	<clipPath id="SVGID_2_">
		<use xlink:href="#SVGID_1_"  style="overflow:visible;"/>
	</clipPath>
	<g class="st0">
		<defs>
			<rect id="SVGID_3_" x="-316.5" y="-1590" width="1440" height="3031"/>
		</defs>
		<clipPath id="SVGID_4_">
			<use xlink:href="#SVGID_3_"  style="overflow:visible;"/>
		</clipPath>
	</g>
</g>
<g>
	<g>
		<path class="st2" d="M22.18,38.19h1.72c0.32,0,0.65,0.02,0.99,0.05c0.34,0.04,0.66,0.12,0.94,0.25c0.28,0.13,0.51,0.31,0.69,0.55
			c0.18,0.24,0.27,0.55,0.27,0.94c0,0.36-0.07,0.66-0.2,0.89c-0.14,0.24-0.32,0.42-0.54,0.56c-0.22,0.14-0.47,0.23-0.75,0.29
			c-0.28,0.06-0.57,0.09-0.87,0.09h-2.24V38.19z M18.83,50.57h3.36v-5.94h2.45c0.8,0,1.55-0.08,2.24-0.23
			c0.69-0.15,1.28-0.4,1.79-0.76c0.5-0.36,0.9-0.84,1.18-1.44c0.29-0.6,0.43-1.35,0.43-2.24c0-0.9-0.15-1.65-0.46-2.25
			c-0.31-0.59-0.73-1.07-1.25-1.42c-0.52-0.35-1.14-0.6-1.84-0.74c-0.7-0.14-1.45-0.22-2.24-0.22h-5.66V50.57z M13.14,35.35H9.78
			v9.23c0,0.47-0.08,0.91-0.23,1.31c-0.15,0.4-0.36,0.75-0.63,1.04c-0.27,0.29-0.6,0.52-0.97,0.69c-0.37,0.16-0.78,0.25-1.23,0.25
			s-0.86-0.08-1.24-0.25c-0.38-0.16-0.71-0.39-0.98-0.69c-0.27-0.29-0.48-0.64-0.64-1.04c-0.15-0.4-0.23-0.84-0.23-1.31v-9.23H0.28
			v9.35c0,0.9,0.14,1.73,0.41,2.49c0.27,0.76,0.68,1.42,1.22,1.98c0.54,0.56,1.21,1,2.01,1.31c0.8,0.32,1.74,0.47,2.8,0.47
			c1.05,0,1.97-0.16,2.78-0.47c0.8-0.32,1.48-0.75,2.01-1.31c0.54-0.56,0.94-1.22,1.22-1.98c0.27-0.76,0.41-1.59,0.41-2.49V35.35z"
			/>
	</g>
	<g>
		<path class="st2" d="M86.66,15.05c-0.65-0.57-1.37-0.98-2.17-1.23c-0.8-0.24-1.64-0.37-2.5-0.37c-0.75,0-1.47,0.1-2.17,0.31
			c-0.7,0.21-1.32,0.52-1.86,0.94c-0.54,0.42-0.97,0.93-1.29,1.55c-0.32,0.62-0.48,1.33-0.48,2.15c0,0.85,0.18,1.53,0.53,2.04
			c0.35,0.52,0.79,0.93,1.32,1.25c0.53,0.32,1.11,0.57,1.72,0.75c0.62,0.19,1.19,0.37,1.72,0.56c0.53,0.19,0.97,0.41,1.32,0.68
			c0.35,0.26,0.53,0.63,0.53,1.09c0,0.27-0.07,0.51-0.2,0.71c-0.14,0.2-0.32,0.37-0.54,0.49c-0.22,0.13-0.47,0.23-0.75,0.29
			c-0.28,0.06-0.56,0.1-0.83,0.1c-0.56,0-1.1-0.13-1.63-0.38c-0.52-0.25-0.96-0.61-1.3-1.06l-2.39,2.62
			c0.73,0.67,1.52,1.16,2.37,1.46c0.85,0.3,1.77,0.45,2.76,0.45c0.79,0,1.54-0.1,2.25-0.3c0.71-0.2,1.34-0.51,1.87-0.92
			c0.54-0.42,0.97-0.94,1.28-1.57c0.32-0.63,0.47-1.37,0.47-2.22c0-0.89-0.17-1.6-0.52-2.13c-0.34-0.53-0.78-0.95-1.3-1.27
			c-0.52-0.32-1.09-0.56-1.69-0.73c-0.6-0.17-1.17-0.34-1.69-0.52c-0.52-0.17-0.96-0.38-1.3-0.62c-0.34-0.24-0.52-0.59-0.52-1.05
			c0-0.29,0.07-0.53,0.22-0.73c0.14-0.2,0.33-0.36,0.56-0.48c0.23-0.12,0.47-0.21,0.73-0.27c0.26-0.06,0.51-0.09,0.75-0.09
			c0.42,0,0.86,0.08,1.32,0.25c0.47,0.16,0.84,0.42,1.11,0.76L86.66,15.05z M61.25,16.94h1.98c0.7,0,1.37,0.09,2.01,0.27
			c0.64,0.18,1.2,0.45,1.67,0.81c0.47,0.36,0.85,0.81,1.13,1.37c0.28,0.55,0.42,1.2,0.42,1.95c0,0.86-0.14,1.59-0.42,2.18
			c-0.28,0.59-0.66,1.08-1.15,1.44c-0.49,0.37-1.07,0.63-1.73,0.78c-0.67,0.16-1.39,0.24-2.16,0.24h-1.74V16.94z M57.89,29.07h5.49
			c1.13,0,2.22-0.16,3.25-0.49c1.03-0.33,1.95-0.81,2.73-1.45c0.79-0.64,1.42-1.43,1.88-2.37c0.47-0.94,0.7-2.03,0.7-3.26
			c0-1.39-0.24-2.57-0.72-3.55c-0.48-0.97-1.13-1.77-1.95-2.38c-0.82-0.61-1.78-1.05-2.87-1.32c-1.1-0.27-2.26-0.41-3.48-0.41h-5.04
			V29.07z M37.75,29.07h3.36V18.23h0.04l6.65,10.84h4.39V13.84h-3.36v10.58H48.8l-6.48-10.58h-4.57V29.07z M27.4,23h-3.73l1.85-4.73
			L27.4,23z M17.64,29.07h3.7l1.27-3.23h5.92l1.31,3.23h3.79l-6.63-15.23h-2.78L17.64,29.07z M0.28,29.07h3.36v-6.58h6.53v6.58h3.36
			V13.84h-3.36v5.68H3.64v-5.68H0.28V29.07z"/>
	</g>
	<g>
		<path class="st2" d="M2.42,1.3v4.81H1.09V1.3H0V0.16h3.51V1.3H2.42z"/>
		<path class="st2" d="M7.39,6.11V3.62H6v2.49H4.66V0.16H6v2.25h1.39V0.16h1.34v5.95H7.39z"/>
		<path class="st2" d="M10.42,6.11V0.16h2.88v1.19h-1.59v1.17h1.46v1.11h-1.46V4.9h1.69v1.21H10.42z"/>
		<path class="st2" d="M19.7,6.11l-1.38-3.62H18.3l0.03,3.62h-1.2V0.16h1.48l1.37,3.67H20l-0.03-3.67h1.16v5.95H19.7z"/>
		<path class="st2" d="M22.83,6.11V0.16h2.88v1.19h-1.59v1.17h1.46v1.11h-1.46V4.9h1.69v1.21H22.83z"/>
		<path class="st2" d="M32.23,6.11H30.8l-0.73-3.99h-0.02l-0.72,3.99H27.9l-1.12-5.95h1.37l0.61,4.14h0.03l0.65-4.14h1.3l0.67,4.14
			h0.03l0.61-4.14h1.3L32.23,6.11z"/>
		<path class="st2" d="M40.54,4.41c0,0.32-0.05,0.59-0.16,0.8c-0.1,0.22-0.24,0.39-0.41,0.52c-0.17,0.13-0.36,0.23-0.57,0.29
			c-0.21,0.06-0.42,0.09-0.64,0.09h-1.98V0.16h1.78c0.19,0,0.38,0.02,0.59,0.06c0.21,0.04,0.4,0.11,0.57,0.22
			c0.17,0.11,0.31,0.26,0.43,0.47c0.11,0.2,0.17,0.46,0.17,0.78c0,0.35-0.07,0.63-0.21,0.84C39.98,2.74,39.8,2.9,39.6,2.99v0.02
			c0.11,0.03,0.22,0.08,0.34,0.15c0.11,0.07,0.21,0.17,0.3,0.28c0.09,0.11,0.16,0.25,0.22,0.42C40.51,4.02,40.54,4.2,40.54,4.41z
			 M39.15,1.9c0-0.23-0.06-0.39-0.19-0.49c-0.13-0.1-0.28-0.14-0.45-0.14h-0.45v1.29h0.46c0.16,0,0.31-0.05,0.44-0.15
			C39.08,2.31,39.15,2.14,39.15,1.9z M39.26,4.29c0-0.14-0.02-0.25-0.06-0.34s-0.1-0.17-0.17-0.23c-0.07-0.06-0.15-0.1-0.24-0.13
			c-0.09-0.03-0.17-0.04-0.26-0.04h-0.49V5h0.5c0.2,0,0.36-0.06,0.5-0.18C39.19,4.7,39.26,4.53,39.26,4.29z"/>
		<path class="st2" d="M42,6.11V0.16h1.36v4.71h1.59v1.24H42z"/>
		<path class="st2" d="M48.84,6.11l-0.24-1.08h-1.34l-0.24,1.08h-1.35l1.45-5.95h1.69l1.44,5.95H48.84z M47.94,1.45h-0.03l-0.5,2.53
			h1.02L47.94,1.45z"/>
		<path class="st2" d="M54.43,6.04c-0.26,0.15-0.6,0.23-1.01,0.23c-0.35,0-0.66-0.08-0.95-0.23c-0.28-0.15-0.53-0.37-0.73-0.65
			c-0.2-0.28-0.36-0.61-0.47-0.99c-0.11-0.38-0.17-0.81-0.17-1.26c0-0.46,0.06-0.89,0.17-1.28c0.11-0.39,0.27-0.72,0.47-0.99
			c0.2-0.27,0.44-0.49,0.73-0.64C52.75,0.08,53.07,0,53.42,0c0.4,0,0.73,0.07,1,0.21c0.27,0.14,0.48,0.32,0.64,0.53l-0.72,0.97
			c-0.1-0.13-0.21-0.24-0.34-0.32c-0.13-0.08-0.28-0.12-0.48-0.12c-0.18,0-0.34,0.05-0.47,0.14c-0.13,0.1-0.24,0.23-0.34,0.39
			c-0.09,0.17-0.16,0.36-0.21,0.59c-0.05,0.23-0.07,0.47-0.07,0.73s0.02,0.5,0.07,0.72c0.04,0.22,0.11,0.42,0.21,0.59
			c0.09,0.17,0.21,0.3,0.34,0.39s0.29,0.14,0.47,0.14S53.86,4.94,54,4.85c0.13-0.09,0.24-0.2,0.32-0.32l0.75,0.93
			C54.9,5.69,54.69,5.88,54.43,6.04z"/>
		<path class="st2" d="M58.93,6.11l-1.27-2.76h-0.03v2.76h-1.35V0.16h1.35v2.48h0.03l1.23-2.48h1.51l-1.53,2.72l1.62,3.23H58.93z"/>
		<path class="st2" d="M65.25,1.37v1.22h1.42v1.15h-1.41v2.37h-1.36V0.16h2.9v1.21H65.25z"/>
		<path class="st2" d="M68.16,6.11V0.16h2.88v1.19h-1.59v1.17h1.46v1.11h-1.46V4.9h1.69v1.21H68.16z"/>
		<path class="st2" d="M75.03,1.58c-0.1-0.12-0.22-0.21-0.35-0.27s-0.27-0.1-0.42-0.1c-0.15,0-0.29,0.05-0.41,0.14
			c-0.12,0.1-0.18,0.25-0.18,0.47c0,0.19,0.06,0.33,0.19,0.43c0.12,0.1,0.31,0.22,0.55,0.34c0.14,0.07,0.28,0.15,0.43,0.24
			c0.15,0.09,0.29,0.21,0.41,0.34c0.12,0.13,0.23,0.3,0.31,0.48c0.08,0.19,0.12,0.41,0.12,0.67c0,0.32-0.05,0.6-0.15,0.85
			c-0.1,0.24-0.24,0.45-0.41,0.61c-0.17,0.16-0.37,0.28-0.6,0.36c-0.23,0.08-0.46,0.12-0.7,0.12c-0.36,0-0.69-0.07-0.98-0.2
			c-0.29-0.13-0.53-0.29-0.71-0.47l0.69-1.01c0.13,0.13,0.28,0.24,0.45,0.32c0.17,0.08,0.34,0.12,0.51,0.12
			c0.16,0,0.3-0.05,0.41-0.16c0.11-0.11,0.17-0.25,0.17-0.45c0-0.2-0.07-0.35-0.2-0.47s-0.33-0.24-0.59-0.37
			c-0.16-0.08-0.32-0.16-0.46-0.26c-0.14-0.1-0.27-0.21-0.38-0.34c-0.11-0.13-0.2-0.29-0.26-0.47c-0.06-0.18-0.09-0.39-0.09-0.64
			c0-0.33,0.05-0.61,0.16-0.85c0.11-0.24,0.25-0.43,0.43-0.58c0.18-0.15,0.37-0.26,0.59-0.34C73.77,0.04,73.98,0,74.2,0
			c0.33,0,0.62,0.05,0.88,0.16c0.26,0.11,0.47,0.25,0.65,0.43L75.03,1.58z"/>
		<path class="st2" d="M78.89,1.3v4.81h-1.32V1.3h-1.09V0.16h3.51V1.3H78.89z"/>
		<path class="st2" d="M81.29,0.16h0.98l-0.53,2.17h-0.88L81.29,0.16z"/>
		<path class="st2" d="M86.16,1.58c-0.1-0.12-0.22-0.21-0.35-0.27s-0.27-0.1-0.42-0.1c-0.15,0-0.29,0.05-0.41,0.14
			c-0.12,0.1-0.18,0.25-0.18,0.47c0,0.19,0.06,0.33,0.19,0.43c0.12,0.1,0.31,0.22,0.55,0.34c0.14,0.07,0.28,0.15,0.43,0.24
			c0.15,0.09,0.29,0.21,0.41,0.34c0.12,0.13,0.23,0.3,0.31,0.48c0.08,0.19,0.12,0.41,0.12,0.67c0,0.32-0.05,0.6-0.15,0.85
			c-0.1,0.24-0.24,0.45-0.41,0.61c-0.17,0.16-0.37,0.28-0.6,0.36c-0.23,0.08-0.46,0.12-0.7,0.12c-0.36,0-0.69-0.07-0.98-0.2
			c-0.29-0.13-0.53-0.29-0.71-0.47l0.69-1.01c0.13,0.13,0.28,0.24,0.45,0.32c0.17,0.08,0.34,0.12,0.51,0.12
			c0.16,0,0.3-0.05,0.41-0.16c0.11-0.11,0.17-0.25,0.17-0.45c0-0.2-0.07-0.35-0.2-0.47s-0.33-0.24-0.59-0.37
			c-0.16-0.08-0.32-0.16-0.46-0.26c-0.14-0.1-0.27-0.21-0.38-0.34c-0.11-0.13-0.2-0.29-0.26-0.47c-0.06-0.18-0.09-0.39-0.09-0.64
			c0-0.33,0.05-0.61,0.16-0.85c0.11-0.24,0.25-0.43,0.43-0.58c0.18-0.15,0.37-0.26,0.59-0.34C84.9,0.04,85.12,0,85.34,0
			c0.33,0,0.62,0.05,0.88,0.16c0.26,0.11,0.47,0.25,0.65,0.43L86.16,1.58z"/>
	</g>
	<g>
		<path class="st2" d="M39.83,41.15h-1.35l1.62-4.29h-1.89v-1.07h3.24v0.91L39.83,41.15z"/>
		<path class="st2" d="M47.36,37.47c0,0.3-0.05,0.55-0.14,0.77c-0.09,0.22-0.22,0.4-0.37,0.54c-0.16,0.14-0.33,0.25-0.53,0.31
			c-0.2,0.07-0.4,0.1-0.6,0.1h-0.54v1.95h-1.22v-5.36h1.71c0.2,0,0.39,0.03,0.59,0.08c0.2,0.06,0.38,0.15,0.54,0.28
			c0.16,0.13,0.29,0.3,0.4,0.52C47.31,36.88,47.36,37.15,47.36,37.47z M46.19,37.49c0-0.24-0.06-0.42-0.18-0.52
			c-0.12-0.11-0.26-0.16-0.43-0.16h-0.4v1.4h0.4c0.17,0,0.32-0.06,0.43-0.19C46.13,37.9,46.19,37.72,46.19,37.49z"/>
		<path class="st2" d="M48.02,41.15v-5.36h1.26v4.24h1.47v1.12H48.02z"/>
		<path class="st2" d="M53.74,41.15l-0.23-0.98h-1.23l-0.23,0.98h-1.24l1.34-5.36h1.56l1.33,5.36H53.74z M52.92,36.95h-0.03
			l-0.47,2.28h0.94L52.92,36.95z"/>
		<path class="st2" d="M57.36,39.21v1.93h-1.22v-1.93l-1.39-3.43h1.34L56.75,38h0.02l0.67-2.22h1.32L57.36,39.21z"/>
		<path class="st2" d="M63.76,41.15h-1.32l-0.68-3.6h-0.02l-0.67,3.6h-1.32l-1.03-5.36H60l0.57,3.73h0.03l0.6-3.73h1.2l0.62,3.73
			h0.02l0.56-3.73h1.2L63.76,41.15z"/>
		<path class="st2" d="M67.65,41.15l-0.73-2.13h-0.36v2.13h-1.2v-5.36h1.76c0.53,0,0.94,0.14,1.24,0.4
			c0.29,0.27,0.44,0.67,0.44,1.21c0,0.2-0.02,0.37-0.07,0.53c-0.05,0.16-0.11,0.29-0.18,0.4c-0.07,0.11-0.16,0.2-0.25,0.27
			c-0.09,0.07-0.18,0.12-0.27,0.15l0.94,2.39H67.65z M67.57,37.47c0-0.14-0.02-0.25-0.06-0.33c-0.04-0.09-0.09-0.15-0.15-0.2
			c-0.06-0.05-0.13-0.08-0.21-0.1s-0.15-0.03-0.22-0.03h-0.39v1.35h0.36c0.18,0,0.33-0.05,0.46-0.16S67.57,37.71,67.57,37.47z"/>
		<path class="st2" d="M69.55,41.15v-5.36h1.25v5.36H69.55z"/>
		<path class="st2" d="M74.64,41.15c-0.25,0.08-0.54,0.12-0.88,0.12c-0.35,0-0.66-0.07-0.93-0.2c-0.27-0.14-0.5-0.33-0.69-0.57
			c-0.19-0.24-0.33-0.54-0.43-0.88c-0.1-0.34-0.15-0.72-0.15-1.14s0.05-0.8,0.15-1.15c0.1-0.35,0.24-0.64,0.43-0.89
			c0.19-0.25,0.41-0.44,0.67-0.58c0.26-0.14,0.55-0.2,0.87-0.2c0.37,0,0.68,0.06,0.94,0.19c0.25,0.12,0.45,0.28,0.59,0.47
			l-0.68,0.89c-0.19-0.25-0.44-0.38-0.76-0.38c-0.17,0-0.32,0.04-0.44,0.13c-0.12,0.09-0.23,0.21-0.31,0.36
			c-0.08,0.15-0.14,0.33-0.18,0.53c-0.04,0.2-0.06,0.42-0.06,0.64s0.02,0.44,0.05,0.64c0.04,0.2,0.1,0.38,0.18,0.53
			c0.08,0.15,0.18,0.27,0.3,0.36c0.12,0.09,0.27,0.14,0.44,0.14c0.19,0,0.33-0.04,0.44-0.11v-1H73.6v-1.05h1.68v2.85
			C75.1,40.96,74.89,41.06,74.64,41.15z"/>
		<path class="st2" d="M78.65,41.15V38.9h-1.28v2.24h-1.23v-5.36h1.23v2.03h1.28v-2.03h1.23v5.36H78.65z"/>
		<path class="st2" d="M82.59,36.82v4.33h-1.22v-4.33h-1.01v-1.03h3.24v1.03H82.59z"/>
		<path class="st2" d="M86.36,37.07c-0.09-0.11-0.2-0.19-0.33-0.25c-0.12-0.06-0.25-0.09-0.39-0.09c-0.14,0-0.27,0.04-0.38,0.13
			c-0.11,0.09-0.17,0.23-0.17,0.42c0,0.17,0.06,0.3,0.17,0.39c0.11,0.09,0.28,0.2,0.5,0.31c0.12,0.06,0.26,0.13,0.39,0.22
			c0.14,0.08,0.26,0.19,0.38,0.31c0.11,0.12,0.21,0.27,0.29,0.44c0.08,0.17,0.11,0.37,0.11,0.6c0,0.29-0.05,0.54-0.14,0.76
			c-0.09,0.22-0.22,0.4-0.38,0.55c-0.16,0.14-0.34,0.25-0.55,0.33c-0.21,0.07-0.42,0.11-0.65,0.11c-0.33,0-0.63-0.06-0.9-0.18
			c-0.27-0.12-0.49-0.26-0.66-0.42l0.64-0.91c0.12,0.12,0.26,0.22,0.41,0.29c0.16,0.07,0.31,0.11,0.47,0.11
			c0.15,0,0.28-0.05,0.38-0.14c0.1-0.1,0.16-0.23,0.16-0.4c0-0.18-0.06-0.32-0.19-0.42c-0.12-0.1-0.31-0.21-0.54-0.33
			c-0.15-0.07-0.29-0.15-0.42-0.23c-0.13-0.09-0.25-0.19-0.35-0.31c-0.1-0.12-0.18-0.26-0.24-0.42c-0.06-0.16-0.09-0.35-0.09-0.58
			c0-0.3,0.05-0.55,0.15-0.77c0.1-0.21,0.23-0.39,0.4-0.53c0.16-0.14,0.34-0.24,0.54-0.3c0.2-0.07,0.4-0.1,0.6-0.1
			c0.3,0,0.57,0.05,0.81,0.14c0.24,0.09,0.44,0.23,0.6,0.39L86.36,37.07z"/>
	</g>
	<g>
		<path class="st2" d="M39.97,50.86h-1.45l1.74-4.29h-2.02V45.5h3.47v0.91L39.97,50.86z"/>
		<path class="st2" d="M46.05,46.53v4.33h-1.31v-4.33h-1.08V45.5h3.47v1.03H46.05z"/>
		<path class="st2" d="M47.65,50.86V45.5h2.84v1.07h-1.57v1.05h1.45v1h-1.45v1.15h1.67v1.09H47.65z"/>
		<path class="st2" d="M53.81,46.78c-0.1-0.11-0.22-0.19-0.35-0.25c-0.13-0.06-0.27-0.09-0.42-0.09c-0.15,0-0.28,0.04-0.4,0.13
			c-0.12,0.09-0.18,0.23-0.18,0.42c0,0.17,0.06,0.3,0.18,0.39c0.12,0.09,0.3,0.2,0.54,0.31c0.13,0.06,0.27,0.13,0.42,0.22
			c0.15,0.08,0.28,0.19,0.41,0.31c0.12,0.12,0.22,0.27,0.31,0.44c0.08,0.17,0.12,0.37,0.12,0.6c0,0.29-0.05,0.54-0.15,0.76
			c-0.1,0.22-0.24,0.4-0.41,0.55c-0.17,0.14-0.37,0.25-0.59,0.33C53.07,50.96,52.84,51,52.61,51c-0.35,0-0.68-0.06-0.97-0.18
			c-0.29-0.12-0.53-0.26-0.7-0.42l0.68-0.91c0.13,0.12,0.27,0.22,0.44,0.29c0.17,0.07,0.34,0.11,0.51,0.11
			c0.16,0,0.3-0.05,0.41-0.14c0.11-0.1,0.17-0.23,0.17-0.4c0-0.18-0.07-0.32-0.2-0.42c-0.13-0.1-0.33-0.21-0.58-0.33
			c-0.16-0.07-0.31-0.15-0.45-0.23c-0.14-0.09-0.27-0.19-0.37-0.31c-0.11-0.12-0.19-0.26-0.25-0.42c-0.06-0.16-0.09-0.35-0.09-0.58
			c0-0.3,0.05-0.55,0.16-0.77c0.11-0.21,0.25-0.39,0.42-0.53c0.17-0.14,0.37-0.24,0.58-0.3c0.21-0.07,0.43-0.1,0.64-0.1
			c0.32,0,0.61,0.05,0.86,0.14c0.25,0.1,0.47,0.23,0.64,0.39L53.81,46.78z"/>
		<path class="st2" d="M57.01,46.53v4.33h-1.31v-4.33h-1.08V45.5h3.47v1.03H57.01z"/>
		<path class="st2" d="M61.07,50.86l-0.24-0.98h-1.32l-0.24,0.98h-1.33l1.43-5.36h1.67l1.42,5.36H61.07z M60.19,46.66h-0.03
			l-0.5,2.28h1.01L60.19,46.66z"/>
		<path class="st2" d="M67.03,50.86l0.05-3.68h-0.03l-0.99,3.68h-0.94l-0.96-3.68h-0.03l0.04,3.68h-1.21V45.5h1.68l0.95,3.45h0.03
			l0.92-3.45h1.78v5.36H67.03z"/>
		<path class="st2" d="M69.38,50.86V45.5h2.84v1.07h-1.57v1.05h1.45v1h-1.45v1.15h1.67v1.09H69.38z"/>
		<path class="st2" d="M75.65,50.86l-1.36-3.26h-0.02l0.03,3.26h-1.19V45.5h1.46l1.36,3.31h0.02l-0.02-3.31h1.15v5.36H75.65z"/>
		<path class="st2" d="M79.98,46.53v4.33h-1.31v-4.33h-1.08V45.5h3.47v1.03H79.98z"/>
		<path class="st2" d="M84.01,46.78c-0.1-0.11-0.22-0.19-0.35-0.25c-0.13-0.06-0.27-0.09-0.42-0.09c-0.15,0-0.28,0.04-0.4,0.13
			c-0.12,0.09-0.18,0.23-0.18,0.42c0,0.17,0.06,0.3,0.18,0.39c0.12,0.09,0.3,0.2,0.54,0.31c0.13,0.06,0.27,0.13,0.42,0.22
			c0.15,0.08,0.28,0.19,0.41,0.31c0.12,0.12,0.22,0.27,0.31,0.44c0.08,0.17,0.12,0.37,0.12,0.6c0,0.29-0.05,0.54-0.15,0.76
			c-0.1,0.22-0.24,0.4-0.41,0.55c-0.17,0.14-0.37,0.25-0.59,0.33C83.27,50.96,83.04,51,82.8,51c-0.35,0-0.68-0.06-0.97-0.18
			c-0.29-0.12-0.53-0.26-0.7-0.42l0.68-0.91c0.13,0.12,0.27,0.22,0.44,0.29c0.17,0.07,0.34,0.11,0.51,0.11
			c0.16,0,0.3-0.05,0.41-0.14c0.11-0.1,0.17-0.23,0.17-0.4c0-0.18-0.07-0.32-0.2-0.42c-0.13-0.1-0.33-0.21-0.58-0.33
			c-0.16-0.07-0.31-0.15-0.45-0.23c-0.14-0.09-0.27-0.19-0.37-0.31c-0.11-0.12-0.19-0.26-0.25-0.42c-0.06-0.16-0.09-0.35-0.09-0.58
			c0-0.3,0.05-0.55,0.16-0.77c0.11-0.21,0.25-0.39,0.42-0.53c0.17-0.14,0.37-0.24,0.58-0.3c0.21-0.07,0.43-0.1,0.64-0.1
			c0.32,0,0.61,0.05,0.86,0.14c0.25,0.1,0.47,0.23,0.64,0.39L84.01,46.78z"/>
	</g>
</g>
</svg>
